<svg width="200" height="200" viewBox="0 0 200 200" fill="none" xmlns="http://www.w3.org/2000/svg">
<path d="M100 3.125C46.4973 3.125 3.125 46.4973 3.125 100C3.125 153.503 46.4973 196.875 100 196.875C153.503 196.875 196.875 153.503 196.875 100C196.875 46.4973 153.503 3.125 100 3.125ZM100 21.875C143.177 21.875 178.125 56.8168 178.125 100C178.125 143.177 143.183 178.125 100 178.125C56.8234 178.125 21.875 143.183 21.875 100C21.875 56.8234 56.8168 21.875 100 21.875ZM154.767 72.7605L145.964 63.8863C144.141 62.0484 141.173 62.0363 139.335 63.8598L84.1195 118.632L60.7633 95.0859C58.9402 93.248 55.9723 93.2359 54.1344 95.059L45.2598 103.862C43.4219 105.685 43.4098 108.653 45.2332 110.491L80.6945 146.24C82.5176 148.078 85.4855 148.09 87.3234 146.266L154.741 79.3898C156.579 77.5664 156.59 74.5984 154.767 72.7605Z" fill="#A18AFF"/>
</svg>
